<?xml version="1.0" standalone="no"?>
<!DOCTYPE svg PUBLIC "-//W3C//DTD SVG 20010904//EN"
 "http://www.w3.org/TR/2001/REC-SVG-20010904/DTD/svg10.dtd">
<svg version="1.0" xmlns="http://www.w3.org/2000/svg"
 width="1126.000000pt" height="1224.000000pt" viewBox="0 0 1126.000000 1224.000000"
 preserveAspectRatio="xMidYMid meet">
<metadata>
Created by potrace 1.14, written by Peter Selinger 2001-2017
</metadata>
<g transform="translate(0.000000,1224.000000) scale(0.100000,-0.100000)"
fill="#000000" stroke="none">
<path d="M6690 12213 c43 -18 70 -42 70 -60 0 -11 -13 -12 -64 -7 -41 4 -66 3
-70 -4 -4 -7 6 -13 26 -16 135 -18 172 -26 195 -41 37 -25 14 -35 -79 -35 -71
0 -94 -9 -68 -25 23 -14 5 -22 -92 -39 -101 -17 -106 -17 -228 3 -69 11 -154
22 -190 26 -58 5 -63 4 -47 -9 10 -8 57 -20 105 -27 48 -6 103 -18 122 -26 31
-13 33 -15 17 -25 -14 -7 -32 -6 -63 2 -25 7 -47 11 -50 8 -11 -12 10 -37 47
-53 21 -10 45 -25 52 -33 11 -13 3 -14 -63 -8 -41 3 -117 18 -168 32 -52 14
-106 24 -120 22 -20 -2 -8 -10 56 -37 45 -18 84 -37 87 -40 2 -4 -19 -4 -48 0
-84 12 -107 8 -44 -7 75 -18 96 -30 107 -60 5 -13 16 -24 24 -24 41 0 116 -23
116 -35 0 -23 30 -32 133 -39 111 -8 176 -25 262 -69 53 -26 57 -31 38 -38
-11 -4 -24 -12 -28 -18 -9 -15 -45 -13 -74 3 -21 12 -28 12 -47 0 -19 -13 -29
-12 -95 15 -67 26 -229 53 -229 38 0 -3 24 -11 54 -17 29 -6 64 -21 77 -33
l24 -22 -52 -3 c-45 -3 -52 -6 -55 -25 -2 -14 -11 -23 -25 -25 -22 -3 -33 -22
-13 -22 6 0 10 -4 10 -10 0 -5 -17 -10 -37 -10 -21 -1 -56 -7 -78 -15 -34 -12
-41 -12 -48 0 -15 28 -63 46 -92 35 -15 -6 -64 -10 -109 -10 -68 0 -88 4 -109
20 -34 27 -43 25 -56 -12 -23 -65 -62 -82 -127 -57 -20 7 -53 7 -114 -2 -75
-11 -95 -10 -153 4 -36 10 -85 17 -109 16 -39 -1 -31 -5 74 -39 162 -52 156
-49 137 -60 -10 -6 -31 -5 -53 1 -70 19 -94 -17 -28 -44 46 -20 28 -21 -93 -6
-71 8 -107 19 -172 51 -60 29 -89 39 -108 34 -38 -10 -31 -25 23 -48 92 -39
132 -60 132 -68 0 -4 -9 -6 -20 -3 -11 3 -20 1 -20 -4 0 -5 26 -17 58 -26 75
-21 180 -68 164 -74 -7 -3 -27 0 -44 6 -41 14 -48 14 -48 -4 0 -22 30 -33 137
-50 109 -18 166 -41 172 -69 3 -18 -2 -19 -80 -12 -46 4 -102 9 -124 13 -38 5
-39 5 -20 -11 17 -13 18 -17 5 -25 -8 -6 -12 -11 -10 -13 137 -100 139 -108
22 -88 -37 6 -87 14 -112 17 -25 3 -63 14 -86 24 -22 10 -51 19 -64 19 -21 0
-20 -2 11 -25 19 -13 45 -30 59 -36 14 -7 52 -24 85 -40 73 -34 119 -68 92
-69 -10 0 -28 -5 -40 -11 -20 -11 -18 -14 33 -38 30 -14 56 -32 58 -40 3 -10
0 -12 -13 -8 -25 10 -37 -1 -25 -23 10 -18 8 -19 -22 -14 -18 3 -50 12 -70 20
-20 7 -66 18 -102 24 -35 5 -98 26 -140 46 -41 20 -94 38 -118 41 l-43 6 25
-21 c30 -26 27 -26 -80 -7 -148 26 -153 18 -28 -47 45 -23 75 -44 68 -46 -7
-3 19 -15 58 -27 77 -25 137 -57 146 -80 7 -20 -6 -19 -82 5 -67 21 -112 26
-112 12 0 -5 63 -28 140 -52 77 -24 140 -47 140 -52 0 -14 -45 -19 -74 -9 -43
17 -76 13 -95 -11 -18 -21 -19 -21 -78 -5 -73 21 -109 22 -117 2 -4 -13 -12
-12 -51 5 -26 11 -61 20 -78 20 -30 0 -30 -1 -11 -16 18 -14 14 -15 -53 -10
-39 3 -79 3 -87 0 -60 -23 50 -97 206 -138 37 -10 75 -27 85 -38 18 -21 18
-21 -27 -15 -25 3 -89 20 -144 37 -158 48 -224 37 -150 -25 21 -18 36 -36 32
-40 -4 -4 -28 0 -54 9 -50 17 -106 21 -118 9 -4 -4 30 -26 76 -49 59 -29 83
-47 83 -60 0 -13 26 -32 87 -64 48 -25 86 -49 85 -55 -2 -5 -29 -12 -60 -15
-30 -3 -59 -9 -63 -13 -15 -15 33 -46 119 -76 108 -38 124 -46 137 -72 9 -16
8 -26 -4 -44 -14 -22 -14 -23 22 -38 72 -30 -2 -17 -133 22 -119 35 -245 60
-245 47 0 -3 27 -19 60 -37 67 -35 75 -49 30 -49 -47 0 -36 -17 38 -54 54 -28
62 -35 40 -36 -48 0 -40 -18 18 -39 94 -36 140 -80 67 -66 -58 11 -76 11 -80
-2 -3 -7 17 -16 50 -23 68 -14 97 -33 80 -51 -7 -7 -13 -21 -13 -30 0 -10 -9
-21 -20 -24 -11 -3 -24 -15 -30 -25 -8 -16 -1 -22 58 -50 37 -17 105 -44 152
-60 47 -15 127 -49 178 -74 69 -35 132 -56 240 -83 237 -56 325 -82 362 -107
66 -43 117 -65 276 -117 88 -28 186 -64 219 -79 33 -15 86 -29 116 -32 67 -7
312 -110 479 -202 63 -35 144 -76 180 -91 222 -93 417 -309 520 -577 56 -145
74 -346 46 -487 -25 -120 -58 -195 -164 -371 -52 -85 -107 -180 -123 -212 -15
-31 -52 -85 -82 -120 -30 -34 -71 -96 -93 -137 -21 -41 -50 -81 -64 -89 -14
-9 -48 -38 -75 -66 -58 -59 -274 -253 -357 -320 -32 -26 -75 -54 -95 -63 -21
-8 -63 -39 -94 -69 -84 -79 -220 -164 -434 -269 -299 -147 -507 -221 -775
-275 -57 -12 -109 -25 -115 -29 -5 -5 -77 -11 -160 -15 -82 -4 -240 -11 -350
-16 -110 -5 -300 -9 -421 -9 -133 -1 -243 -6 -275 -13 -64 -14 -127 -15 -231
-4 -134 15 -87 -8 60 -29 105 -15 170 -19 282 -15 188 6 315 6 470 0 69 -2
155 0 192 4 57 7 72 6 94 -9 l26 -17 -70 -35 -70 -35 -200 -8 c-201 -9 -367
-23 -478 -40 -33 -6 -157 -14 -275 -20 -118 -5 -300 -15 -405 -21 -136 -7
-218 -7 -287 0 -116 13 -304 13 -332 0 -14 -7 -6 -8 28 -4 51 5 97 -2 97 -15
0 -4 -42 -13 -92 -19 -51 -6 -135 -19 -187 -28 l-94 -17 29 -23 c19 -15 25
-26 18 -33 -8 -8 -265 -62 -399 -84 -16 -2 4 -2 45 1 41 4 102 5 135 4 33 -2
76 -3 95 -4 24 -1 38 -8 45 -22 13 -25 40 -33 138 -41 43 -3 76 -9 72 -12 -3
-3 -36 -16 -73 -28 l-67 -21 30 -12 c25 -10 50 -9 146 8 118 22 149 20 187
-11 23 -19 -6 -28 -95 -28 -45 0 -84 -4 -87 -8 -8 -13 288 -25 661 -27 296 -1
334 -3 351 -18 25 -23 88 -22 118 2 19 15 41 18 120 18 96 0 97 0 107 -27 9
-25 14 -27 40 -19 30 8 67 -3 67 -21 0 -16 -72 -30 -187 -37 -62 -3 -113 -10
-113 -15 0 -12 145 -10 257 4 73 9 100 9 114 0 34 -21 194 -12 489 27 83 11
322 14 358 5 l23 -7 -23 -24 c-61 -66 -137 -83 -413 -94 -126 -5 -261 -12
-300 -15 -38 -3 -96 -1 -128 5 -52 9 -65 8 -115 -11 -33 -13 -88 -23 -132 -26
-41 -2 -78 -7 -83 -11 -15 -15 221 -19 330 -6 50 6 76 3 133 -14 40 -12 71
-24 69 -26 -2 -2 -57 -31 -121 -64 -82 -43 -147 -69 -215 -86 -54 -13 -125
-34 -158 -45 -102 -35 -166 -49 -351 -75 -230 -32 -375 -45 -496 -45 -131 0
-158 12 -100 45 l27 16 -45 -6 c-25 -3 -99 -12 -165 -19 -66 -8 -133 -19 -148
-25 -16 -6 -72 -10 -125 -9 -53 2 -126 -2 -162 -9 -36 -6 -128 -15 -205 -18
-77 -4 -158 -11 -180 -15 l-40 -8 52 -1 c28 0 54 -5 57 -10 10 -15 -44 -22
-219 -27 -195 -6 -212 -9 -172 -30 53 -28 34 -42 -63 -46 -49 -1 -94 -8 -100
-14 -9 -9 -1 -9 32 -3 58 11 158 11 243 -1 87 -12 165 -32 165 -41 0 -7 -38
-23 -90 -36 -28 -7 -36 -14 -38 -36 -3 -22 -11 -29 -45 -38 -23 -6 -63 -22
-89 -35 -26 -13 -60 -24 -76 -24 -38 0 -93 -20 -87 -31 3 -5 -9 -15 -27 -23
l-33 -14 57 -1 c58 -1 84 -15 48 -26 -11 -3 -20 -13 -20 -20 0 -18 -31 -35
-64 -35 -14 0 -37 -11 -52 -25 -19 -18 -38 -25 -65 -25 -21 0 -41 -5 -45 -11
-5 -8 20 -9 88 -4 81 6 96 5 108 -10 17 -20 4 -31 -47 -41 -36 -7 -45 -24 -13
-24 26 0 26 -3 -13 -41 -26 -27 -29 -34 -15 -37 9 -2 26 2 38 8 21 11 40 6 40
-10 0 -5 -18 -14 -40 -20 -44 -12 -51 -25 -20 -33 35 -9 22 -24 -26 -30 -25
-2 -53 -13 -63 -22 -15 -16 -13 -17 39 -11 30 3 159 10 285 16 303 13 360 17
620 46 121 14 281 28 356 31 117 5 137 4 142 -10 6 -16 1 -17 -148 -32 -33 -4
-73 -13 -90 -21 -16 -8 -21 -12 -10 -8 38 12 192 17 198 7 4 -6 -21 -23 -56
-39 -62 -29 -62 -29 -237 -26 -102 2 -196 -2 -225 -8 -27 -6 -140 -15 -250
-20 -466 -22 -465 -22 -465 -35 0 -19 24 -25 78 -18 67 8 72 -9 11 -37 -53
-25 -82 -50 -58 -50 8 0 52 9 99 20 96 22 195 26 206 8 12 -20 -42 -56 -103
-68 -57 -12 -113 -35 -113 -46 0 -4 28 -3 63 0 70 7 99 -3 78 -28 -7 -8 -26
-18 -42 -21 -44 -10 -44 -22 1 -30 22 -4 40 -9 40 -13 0 -3 -10 -16 -22 -29
l-22 -24 135 7 135 7 29 -26 30 -26 -85 -1 c-92 0 -133 -7 -124 -21 3 -5 16
-9 30 -9 31 0 43 -28 20 -46 -10 -7 -47 -16 -82 -19 -35 -4 -67 -12 -71 -18
-4 -7 8 -8 36 -3 41 6 41 6 35 -20 -7 -26 -6 -27 22 -18 29 8 231 10 444 5 63
-2 309 1 545 7 341 8 459 15 570 31 220 33 331 26 356 -21 15 -28 -5 -40 -53
-32 -26 4 -44 1 -60 -10 -18 -13 -51 -16 -158 -16 -143 0 -234 -11 -312 -36
-84 -27 -66 -35 69 -29 169 8 205 11 286 26 60 11 69 11 80 -4 10 -14 21 -15
77 -7 36 5 97 19 135 30 39 12 112 23 163 26 51 3 111 12 134 20 22 8 54 14
70 14 27 0 28 1 14 16 -9 8 -21 24 -26 35 -9 17 -7 19 18 19 32 0 82 33 82 55
0 29 27 37 61 16 l32 -20 16 32 c13 27 22 32 51 33 40 1 210 38 237 52 10 5
42 12 70 16 29 4 74 16 99 26 25 11 82 29 126 41 45 11 110 33 145 49 35 16
85 34 111 39 26 5 74 21 107 35 46 19 77 26 133 26 80 0 119 15 203 76 65 47
168 89 359 144 204 60 214 63 380 143 74 36 161 73 193 83 32 10 75 32 95 50
47 39 161 89 308 133 81 24 118 27 112 9 -7 -22 -96 -83 -176 -123 -43 -21
-122 -64 -178 -95 -125 -72 -228 -124 -276 -139 -20 -7 -74 -35 -120 -62 -171
-104 -359 -186 -466 -204 -41 -7 -43 -6 -34 12 6 10 20 27 31 37 12 11 21 24
21 29 0 6 -8 3 -17 -6 -34 -30 -159 -85 -263 -117 -336 -100 -375 -116 -467
-189 -44 -34 -66 -44 -150 -61 -54 -12 -134 -32 -178 -45 -44 -14 -100 -29
-124 -35 -72 -19 -38 -23 51 -6 45 8 124 16 174 17 65 1 112 8 165 26 138 44
197 55 235 43 19 -7 32 -15 29 -20 -3 -5 -47 -18 -98 -30 -104 -23 -157 -50
-157 -79 0 -18 1 -18 68 1 37 11 150 46 251 80 132 43 192 58 214 54 21 -4 50
3 108 29 53 25 99 38 146 42 42 3 107 20 171 44 99 38 142 47 142 31 0 -4 -12
-15 -28 -24 -15 -9 -36 -26 -46 -37 -27 -30 -8 -27 99 15 278 108 395 142 395
115 0 -5 -12 -19 -27 -30 l-28 -21 41 14 c58 20 115 50 223 118 120 76 177
104 329 163 68 26 163 73 210 103 295 188 547 320 569 299 12 -13 -103 -118
-156 -143 -31 -14 -81 -45 -111 -67 -30 -22 -84 -56 -120 -75 -77 -41 -163
-97 -180 -117 -14 -17 126 57 190 101 25 17 85 52 134 78 123 66 288 168 371
230 87 65 159 131 450 410 313 300 321 309 344 355 24 46 33 53 55 45 37 -14
39 -43 7 -86 -17 -23 -31 -47 -31 -54 0 -6 -18 -24 -41 -40 -59 -41 -118 -111
-125 -151 -9 -50 1 -50 25 -1 11 24 73 96 136 161 98 101 115 123 115 150 0
45 25 77 60 77 56 0 77 23 45 50 -13 11 -8 20 35 67 28 30 50 64 50 75 0 20
-1 20 -18 5 -18 -17 -62 -13 -62 5 0 5 25 20 55 33 55 25 55 25 55 69 0 36 10
58 55 127 30 46 55 90 55 97 0 16 6 15 33 -3 22 -14 23 -13 34 28 7 23 40 89
75 147 157 259 214 348 245 387 18 23 33 49 33 57 0 9 7 19 15 22 8 4 15 18
15 34 0 38 71 174 92 178 11 2 22 -6 30 -23 29 -65 -51 -246 -258 -580 -102
-164 -116 -192 -109 -214 4 -12 -4 -22 -29 -33 -50 -24 -106 -77 -106 -101 0
-11 -16 -39 -35 -63 -36 -43 -45 -74 -22 -74 13 1 73 78 84 107 3 10 34 45 68
78 82 80 140 169 191 290 42 101 218 452 235 470 6 5 7 -20 3 -67 -11 -122 15
-104 67 46 8 22 28 55 46 74 18 19 35 44 39 56 4 11 22 44 40 73 32 50 74 128
74 137 0 2 -9 2 -20 -1 -32 -9 -36 24 -10 96 34 97 74 172 109 205 17 17 31
38 31 49 0 23 15 52 51 97 16 19 36 53 45 75 9 22 28 58 43 80 34 51 51 90 51
119 0 12 15 37 35 56 30 29 35 31 41 16 4 -9 4 -43 1 -74 l-6 -57 15 55 c8 30
33 114 55 185 54 178 57 192 63 260 2 33 18 101 34 150 17 50 33 110 37 135
l6 45 -20 -32 c-11 -18 -28 -33 -36 -33 -18 0 -18 -9 1 91 10 56 13 105 9 154
-7 67 -6 73 19 101 19 21 28 26 34 16 9 -14 32 321 32 471 0 66 -7 125 -20
178 -11 44 -38 184 -60 312 -41 247 -102 506 -147 624 -26 69 -43 91 -43 58 0
-8 -9 -19 -21 -25 -37 -20 -62 16 -110 159 -16 46 -46 112 -67 145 -21 34 -44
76 -50 95 -6 18 -23 42 -37 53 -14 11 -34 37 -45 59 -11 21 -41 62 -66 90
l-46 52 23 18 23 17 -34 4 c-33 3 -35 5 -35 41 0 35 -4 40 -50 65 -35 19 -51
34 -53 51 -3 21 0 23 22 19 14 -3 26 -4 26 -2 0 2 -31 24 -69 49 -53 35 -74
56 -90 90 -14 30 -28 45 -43 47 -13 2 -24 11 -27 23 -2 11 -16 36 -32 56 -51
65 -32 78 42 30 24 -16 63 -47 87 -69 23 -22 42 -37 42 -34 0 7 -127 148 -192
213 -31 31 -70 62 -87 68 -23 10 -29 19 -28 39 2 23 -2 27 -24 24 -14 -1 -41
8 -60 21 -26 17 -35 31 -37 57 -4 36 -18 53 -39 45 -7 -2 -25 12 -40 32 -63
82 -78 93 -132 93 -83 0 -121 21 -121 68 0 24 14 27 55 12 52 -20 45 2 -12 42
-32 23 -78 59 -103 81 -25 21 -68 53 -97 69 -29 16 -79 54 -113 84 -33 29 -75
61 -93 70 -17 9 -56 34 -86 55 -64 46 -78 48 -91 14 -5 -14 -12 -25 -14 -25
-3 0 -21 21 -41 48 -35 45 -173 142 -202 142 -24 0 -13 -18 25 -42 47 -29 112
-87 112 -100 0 -6 -10 -8 -23 -4 -14 3 -33 -1 -45 -10 -20 -14 -25 -13 -64 10
-24 13 -59 27 -78 31 -19 4 -47 18 -61 31 -20 20 -31 23 -50 16 -21 -8 -28 -3
-66 53 -53 76 -82 94 -126 77 -26 -10 -33 -9 -40 3 -4 8 -21 15 -37 15 -20 0
-30 5 -30 15 0 12 -58 37 -68 30 -1 -1 2 -15 8 -30 11 -30 -1 -55 -27 -55 -26
0 -70 54 -77 95 -4 22 -14 50 -22 63 -16 25 -44 30 -44 7 0 -9 -11 -20 -24
-27 -19 -8 -26 -20 -28 -47 -2 -28 -8 -37 -24 -39 -35 -5 -46 20 -39 82 6 45
11 56 26 56 39 0 34 44 -7 54 -17 5 -33 0 -51 -14 -14 -11 -22 -20 -18 -20 4
0 2 -6 -4 -14 -10 -11 -10 -20 -1 -36 16 -30 11 -32 -38 -10 -47 21 -48 25
-30 112 7 31 9 60 5 64 -11 11 -34 -15 -41 -46 -3 -18 -12 -30 -21 -30 -20 0
-36 -41 -32 -83 2 -27 -1 -32 -18 -29 -103 15 -113 15 -120 -7 -4 -12 -12 -20
-18 -17 -7 3 -31 10 -54 17 -23 6 -48 17 -54 25 -9 12 -5 14 24 14 47 0 87 16
87 34 0 25 -35 27 -105 5 -53 -16 -73 -18 -92 -10 -28 13 -30 31 -5 38 10 2
22 19 28 36 9 31 14 33 59 24 6 -1 12 3 15 8 3 6 -9 11 -27 13 -43 4 -52 31
-13 39 47 9 35 23 -20 23 -38 0 -48 -3 -44 -14 3 -8 1 -17 -5 -20 -12 -8 -46
10 -115 59 -28 20 -59 35 -75 34 -25 -1 -24 -1 9 -16z m765 -8649 c-95 -84
-453 -303 -474 -289 -36 21 8 73 120 141 53 32 372 182 389 183 3 0 -13 -16
-35 -35z m-2295 -253 c0 -21 -106 -81 -205 -116 -41 -14 -59 -26 -56 -36 17
-63 -10 -79 -139 -79 -97 0 -140 -14 -140 -44 0 -7 -8 -20 -17 -28 -30 -26
-166 -76 -229 -83 -32 -4 -84 -16 -115 -25 -31 -10 -153 -37 -270 -60 -118
-23 -266 -53 -329 -66 -162 -36 -306 -36 -271 -1 6 6 11 17 11 24 0 11 -36 12
-192 7 -213 -6 -221 -2 -82 41 138 43 294 76 404 85 58 5 130 16 160 25 33 10
114 20 200 24 80 4 152 11 159 15 7 5 43 10 80 12 64 2 132 19 255 64 32 12
95 25 140 30 71 9 84 13 109 40 30 32 42 36 127 44 63 5 178 42 300 96 94 42
100 44 100 31z m-2121 -36 c11 -11 10 -16 -7 -33 -26 -26 -103 -42 -198 -42
-65 0 -74 2 -72 17 2 12 -7 20 -29 26 -18 6 -33 13 -33 18 0 17 28 24 120 30
116 8 200 2 219 -16z"/>
<path d="M10441 6648 c-15 -52 -131 -311 -207 -464 -31 -61 -58 -130 -61 -152
-7 -52 12 -57 21 -7 17 88 81 195 118 195 15 0 18 -4 13 -17 -15 -35 -18 -66
-7 -59 6 3 25 51 42 107 22 72 40 110 65 137 23 26 38 58 50 102 9 36 18 74
21 85 5 18 4 18 -11 -2 -18 -25 -45 -31 -45 -9 0 7 5 37 10 66 12 66 7 75 -9
18z"/>
<path d="M10682 860 c-201 -28 -362 -122 -426 -248 -35 -70 -50 -165 -37 -236
40 -219 255 -359 551 -360 170 -1 280 33 373 114 45 40 107 145 107 182 0 15
-8 18 -49 18 -47 0 -50 -1 -75 -44 -49 -84 -138 -137 -264 -156 -225 -35 -403
96 -404 298 -2 156 70 260 214 308 80 26 234 16 316 -21 66 -29 121 -82 149
-140 16 -33 20 -35 65 -35 l48 0 0 140 0 140 -50 0 c-38 0 -50 -4 -50 -15 0
-28 -29 -28 -88 -2 -116 52 -258 73 -380 57z"/>
<path d="M310 853 c-51 -8 -156 -45 -197 -69 -160 -93 -138 -304 38 -378 49
-20 174 -42 377 -66 95 -11 188 -26 207 -34 37 -16 52 -48 41 -90 -26 -103
-387 -115 -546 -18 -50 31 -90 83 -90 118 0 22 -4 24 -55 24 l-55 0 0 -150 0
-150 60 0 c56 0 60 1 60 23 0 13 2 26 5 29 4 3 38 -5 76 -19 206 -71 436 -70
601 4 158 70 203 233 97 348 -61 66 -159 101 -354 124 -49 6 -143 18 -209 26
-134 16 -159 29 -154 79 6 66 127 103 297 93 161 -10 271 -58 311 -136 19 -39
23 -41 65 -41 l45 0 0 130 0 130 -50 0 c-43 0 -50 -3 -50 -19 0 -31 -14 -33
-67 -10 -92 39 -200 59 -318 58 -60 -1 -121 -4 -135 -6z"/>
<path d="M1540 839 c-159 -41 -282 -124 -333 -225 -101 -199 -26 -415 180
-522 118 -61 185 -76 343 -76 154 -1 222 13 337 69 92 46 156 108 196 193 29
61 32 76 32 162 0 87 -3 101 -32 161 -58 117 -171 199 -331 240 -103 26 -288
26 -392 -2z m306 -104 c74 -22 143 -80 179 -150 27 -52 30 -68 30 -149 0 -79
-4 -98 -27 -141 -67 -127 -208 -193 -355 -166 -118 22 -187 71 -234 167 -28
57 -33 76 -32 142 0 96 27 162 87 221 84 82 228 113 352 76z"/>
<path d="M8594 841 c-171 -47 -254 -123 -254 -234 1 -87 65 -170 157 -201 49
-17 179 -38 370 -61 164 -20 211 -33 236 -67 39 -52 -13 -116 -114 -137 -115
-25 -305 -4 -399 44 -56 28 -109 85 -117 126 -5 28 -8 29 -59 29 l-54 0 0
-150 0 -150 60 0 c57 0 60 1 60 24 0 14 4 27 8 30 5 3 38 -6 74 -19 177 -64
389 -73 541 -21 121 41 172 79 202 149 31 75 10 173 -51 232 -62 58 -152 84
-409 115 -207 25 -264 36 -287 57 -42 38 -3 100 80 124 78 23 273 18 357 -8
78 -25 145 -74 165 -123 11 -28 16 -30 62 -30 l49 0 -3 128 -3 127 -52 3 c-47
3 -52 1 -55 -20 -4 -28 -8 -27 -123 13 -82 29 -103 33 -230 36 -115 2 -153 0
-211 -16z"/>
<path d="M2420 770 l0 -49 62 -3 c90 -4 89 0 86 -301 -3 -280 1 -267 -85 -267
l-53 0 0 -45 0 -45 215 0 215 0 0 45 0 45 -65 0 c-54 0 -66 3 -75 20 -7 12 -9
93 -8 220 l3 201 297 -266 297 -265 78 0 78 0 0 327 0 328 68 3 67 3 0 49 0
50 -220 0 -220 0 0 -50 0 -50 65 0 c54 0 66 -3 75 -20 6 -12 9 -82 8 -183 l-3
-164 -259 233 -258 234 -184 0 -184 0 0 -50z"/>
<path d="M3697 813 c-4 -3 -7 -26 -7 -50 l0 -43 63 0 c41 0 70 -5 85 -16 12
-8 90 -92 172 -185 l150 -169 0 -88 c0 -55 -4 -92 -12 -100 -7 -7 -38 -12 -70
-12 l-58 0 0 -45 0 -45 260 0 260 0 0 45 0 45 -63 0 c-36 0 -68 5 -75 12 -8 8
-12 45 -12 99 l0 88 151 173 c83 95 158 179 167 186 9 7 45 12 84 12 l69 0 -3
48 -3 47 -212 3 -213 2 0 -50 0 -50 40 0 c23 0 40 -5 40 -11 0 -6 -33 -50 -72
-96 -40 -47 -82 -97 -94 -111 l-21 -25 -91 109 c-51 60 -92 115 -92 122 0 7
15 12 41 12 l40 0 -3 48 -3 47 -256 3 c-140 1 -258 -1 -262 -5z"/>
<path d="M5420 770 l0 -50 59 0 c94 0 91 10 91 -289 0 -186 -3 -260 -12 -269
-7 -7 -38 -12 -70 -12 l-58 0 0 -45 0 -45 205 0 205 0 0 45 0 45 -48 0 c-26 0
-53 5 -60 12 -9 9 -12 83 -12 272 l0 261 143 -318 142 -317 85 2 84 3 141 314
140 314 3 -258 c2 -182 -1 -262 -9 -271 -7 -8 -31 -14 -60 -14 l-49 0 0 -45 0
-45 250 0 250 0 0 45 0 45 -58 0 c-32 0 -63 5 -70 12 -17 17 -17 529 0 546 7
7 38 12 70 12 l58 0 0 50 0 50 -239 0 -238 0 -107 -237 c-59 -131 -111 -242
-115 -246 -5 -5 -58 101 -118 235 l-110 243 -247 3 -246 2 0 -50z"/>
<path d="M6990 770 l0 -50 65 0 c59 0 65 -2 70 -22 2 -13 6 -124 7 -248 3
-209 5 -228 25 -266 68 -127 231 -183 497 -171 199 9 309 56 357 154 23 46 24
60 29 298 l5 250 68 3 67 3 0 49 0 50 -220 0 -220 0 0 -50 0 -50 58 0 c32 0
63 -5 70 -12 9 -9 12 -75 12 -237 0 -278 -6 -296 -97 -339 -51 -23 -71 -26
-163 -27 -87 0 -112 3 -144 21 -49 25 -74 58 -86 110 -13 53 -13 426 0 458 9
24 14 26 75 26 l66 0 -3 48 -3 47 -267 3 -268 2 0 -50z"/>
<path d="M9530 770 l0 -50 64 0 c49 0 65 -4 70 -16 11 -28 7 -514 -4 -535 -9
-16 -22 -19 -75 -19 l-65 0 0 -45 0 -45 265 0 265 0 0 45 0 45 -57 0 c-32 0
-64 4 -71 8 -9 7 -12 70 -10 283 l3 274 68 3 67 3 0 49 0 50 -260 0 -260 0 0
-50z"/>
</g>
</svg>
